<svg width="86" height="86" viewBox="0 0 86 86" fill="none" xmlns="http://www.w3.org/2000/svg">
<path fill-rule="evenodd" clip-rule="evenodd" d="M43 0L37.8687 7.67664L30.7603 1.74343L28.022 10.5384L19.513 6.82626L19.3914 16.0289L10.1684 14.8407L12.6674 23.7055L3.4836 25.1384L8.407 32.947L0 36.8804L6.94368 43L0 49.1196L8.407 53.0531L3.4836 60.8617L12.6674 62.2945L10.1684 71.1593L19.3914 69.9711L19.513 79.1737L28.022 75.4616L30.7603 84.2566L37.8687 78.3234L43 86L48.1313 78.3234L55.2398 84.2566L57.978 75.4616L66.487 79.1737L66.6126 69.9711L75.8316 71.1593L73.3326 62.2945L82.5164 60.8617L77.597 53.0531L86 49.1196L79.0563 43L86 36.8804L77.597 32.947L82.5164 25.1384L73.3326 23.7055L75.8316 14.8407L66.6126 16.0289L66.487 6.82626L57.978 10.5384L55.2398 1.74343L48.1313 7.67664L43 0ZM54.7304 3.47119L47.9181 9.15716L43 1.79949L38.0819 9.15716L31.2697 3.47119L28.645 11.9012L20.493 8.34482L20.3765 17.1641L11.5415 16.0259L13.9358 24.5197L5.14088 25.8919L9.85741 33.3725L1.80625 37.1394L8.45612 43L1.80625 48.8606L9.85741 52.6276L5.14089 60.1081L13.9358 61.4803L11.5415 69.9742L20.3765 68.8359L20.493 77.6552L28.645 74.0988L31.2697 82.5288L38.0819 76.8428L43 84.2005L47.9181 76.8428L54.7304 82.5288L57.355 74.0988L65.5076 77.6555L65.628 68.8359L74.4585 69.9741L72.0642 61.4803L80.8597 60.108L76.147 52.6276L84.194 48.8609L77.5439 43L84.194 37.1392L76.147 33.3725L80.8597 25.892L72.0642 24.5197L74.4585 16.026L65.628 17.1641L65.5076 8.34454L57.355 11.9012L54.7304 3.47119Z" fill="white"/>
</svg>
